<svg width="101" height="42" viewBox="0 0 101 42" fill="none" xmlns="http://www.w3.org/2000/svg">
<mask id="mask0" mask-type="alpha" maskUnits="userSpaceOnUse" x="48" y="12" width="53" height="18">
<path fill-rule="evenodd" clip-rule="evenodd" d="M48.7031 12.3105H100.595V29.5356H48.7031V12.3105Z" fill="white"/>
</mask>
<g mask="url(#mask0)">
<path fill-rule="evenodd" clip-rule="evenodd" d="M69.3357 29.1649C69.603 29.1649 69.7888 28.9787 69.7888 28.7114V15.4215H74.2925C74.5598 15.4215 74.7445 15.2361 74.7445 14.9685V13.1353C74.7445 12.8668 74.5598 12.6809 74.2925 12.6809H62.3019C62.034 12.6809 61.8494 12.8668 61.8494 13.1353V14.9685C61.8494 15.2361 62.034 15.4215 62.3019 15.4215H66.8051V28.7111C66.8051 28.9787 66.9909 29.1649 67.2579 29.1649H69.3357ZM89.8604 28.5878C90.1271 28.8765 89.9632 29.1649 89.6331 29.1649H87.0213C86.6716 29.1649 86.4867 29.082 86.2603 28.8138L84.6976 27.0837C83.6488 28.485 82.1874 29.5356 79.7612 29.5356C76.7588 29.5356 74.3927 27.7226 74.3927 24.612C74.3927 22.221 75.6688 20.9433 77.6022 19.8722C76.6554 18.7804 76.2242 17.6262 76.2242 16.6173C76.2242 14.0614 78.0133 12.3105 80.7071 12.3105C83.463 12.3105 85.1498 13.9388 85.1498 16.349C85.1498 18.4094 83.6692 19.5621 82.1059 20.4282L84.4095 22.922L85.7049 20.6549C85.8694 20.3875 86.0546 20.2842 86.383 20.2842H88.3777C88.7073 20.2842 88.8922 20.5114 88.6874 20.8613L86.3833 24.8166L89.8604 28.5878ZM80.7486 14.8649C79.6794 14.8649 79.0624 15.5456 79.0624 16.4521C79.0624 17.1525 79.4319 17.7709 80.2757 18.6774C81.7355 17.8324 82.3531 17.3173 82.3531 16.4111C82.3531 15.5655 81.8185 14.8649 80.7486 14.8649ZM79.8234 26.9391C81.1389 26.9391 82.0236 26.3014 82.7437 25.209L79.4127 21.6234C78.1369 22.3452 77.3139 23.0654 77.3139 24.508C77.3142 25.9298 78.4652 26.9391 79.8234 26.9391ZM63.8477 28.6276C63.9514 28.8964 63.7864 29.1649 63.4986 29.1649H61.3601C61.0513 29.1649 60.8661 29.0212 60.7626 28.7313L59.55 25.2298H52.9074L51.6927 28.7313C51.5907 29.0212 51.4049 29.1649 51.097 29.1649H49.0821C48.8145 29.1649 48.6289 28.8964 48.7321 28.6276L54.305 13.0941C54.4085 12.8045 54.5934 12.6818 54.9013 12.6818H57.6571C57.9659 12.6818 58.1716 12.8048 58.2744 13.0941L63.8477 28.6276ZM58.6034 22.5299L56.2388 15.731L53.8531 22.5299H58.6034ZM93.1097 29.1649C92.8418 29.1649 92.6574 28.9787 92.6574 28.7114V15.4215H88.1528C87.8849 15.4215 87.7003 15.2361 87.7003 14.9685V13.1353C87.7003 12.8668 87.8852 12.6809 88.1528 12.6809H100.143C100.411 12.6809 100.595 12.8668 100.595 13.1353V14.9685C100.595 15.2361 100.411 15.4215 100.143 15.4215H95.6391V28.7111C95.6391 28.9787 95.4539 29.1649 95.1869 29.1649H93.1097Z" fill="white"/>
</g>
<mask id="mask1" mask-type="alpha" maskUnits="userSpaceOnUse" x="0" y="0" width="42" height="42">
<path fill-rule="evenodd" clip-rule="evenodd" d="M0.300781 0.490234H41.5859V41.3148H0.300781V0.490234Z" fill="white"/>
</mask>
<g mask="url(#mask1)">
<path fill-rule="evenodd" clip-rule="evenodd" d="M31.5024 3.36834C28.4086 1.53393 24.8162 0.490234 20.9433 0.490234C17.0431 0.490234 13.3428 1.57041 10.238 3.45336C9.30669 4.02021 8.78244 4.4747 8.78244 5.05891C8.78244 6.78066 12.8501 8.63184 20.0664 8.63184C27.2079 8.63184 32.7468 6.60416 32.7468 4.65208C32.7468 4.18612 32.3353 3.86019 31.5024 3.36834ZM34.5753 5.63574C34.6622 5.77017 34.7053 5.91373 34.7053 6.10699C34.7053 8.37501 27.6887 12.3871 16.5189 12.3871C8.3117 12.3871 6.77523 9.37517 6.77523 7.45986C6.77523 6.77504 7.04078 6.07464 7.62539 5.36305C7.65721 5.32069 7.63015 5.30451 7.59328 5.33599C6.52694 6.22996 5.54743 7.23541 4.68805 8.32118C4.27739 8.83479 4.02255 9.28957 4.02255 9.56226C4.02255 13.5314 14.0838 16.4095 23.4914 16.4095C33.5152 16.4095 37.9887 13.1726 37.9887 10.3277C37.9887 9.31075 37.5888 8.71742 36.5653 7.56664C35.901 6.81829 35.2726 6.20848 34.6074 5.60868C34.5753 5.5825 34.553 5.60368 34.5753 5.63574ZM2.29067 12.1456C1.68525 13.334 1.0144 15.3393 0.814866 16.3769C0.727441 16.8216 0.764611 17.0352 0.922213 17.367C2.18838 20.0248 8.59357 24.2775 23.5342 24.2775C32.6493 24.2775 39.7298 22.0619 40.877 18.0195C41.0881 17.2752 41.0997 16.4895 40.8282 15.4308C40.5249 14.248 39.9573 12.8684 39.4767 11.8997C39.4607 11.8682 39.4327 11.8726 39.4384 11.91C39.6171 17.2123 24.6705 20.6293 17.1291 20.6293C8.96021 20.6293 2.14526 17.4097 2.14526 13.3443C2.14526 12.9537 2.22704 12.563 2.32903 12.1565C2.33914 12.1191 2.30703 12.1132 2.29067 12.1456ZM16.7943 29.0863C6.22929 29.0863 1.24758 24.2187 0.343899 20.8967C0.332896 20.8488 0.300781 20.8594 0.300781 20.9026C0.300781 22.021 0.413779 23.4639 0.608551 24.422C0.701328 24.8883 1.08493 25.6198 1.64753 26.2032C4.20574 28.8412 10.5839 32.5377 21.6297 32.5377C36.6795 32.5377 40.1202 27.5781 40.8232 25.9472C41.3255 24.7812 41.5859 22.6732 41.5859 20.9026C41.5859 20.474 41.5752 20.1319 41.5586 19.796C41.5586 19.7415 41.5268 19.7371 41.5158 19.7901C40.7637 23.7807 27.9055 29.0863 16.7943 29.0863ZM22.3445 38.068C27.424 38.068 33.0064 36.6981 36.3449 33.9865C37.2584 33.2478 38.1288 32.2644 38.9079 30.943C39.3566 30.1826 39.7955 29.2792 40.1529 28.3911C40.1687 28.3479 40.1416 28.3267 40.1089 28.3755C37.0042 32.8951 28.014 35.7141 18.731 35.7141C12.1694 35.7141 5.1094 33.6387 2.34512 29.6752C2.31776 29.6384 2.2907 29.6543 2.30736 29.6963C4.88221 35.1105 12.6939 38.068 22.3445 38.068ZM8.28495 37.0249C11.7846 39.7047 16.1772 41.3149 20.943 41.3149C26.1585 41.3149 30.9133 39.3993 34.542 36.2547C34.586 36.2168 34.564 36.1912 34.5209 36.2168C32.8925 37.2925 28.2516 39.6406 20.9433 39.6406C14.592 39.6406 10.5785 38.2389 8.31171 36.9872C8.26829 36.966 8.25224 36.9984 8.28495 37.0249Z" fill="white"/>
</g>
</svg>
