<svg width="98" height="22" viewBox="0 0 98 22" fill="none" xmlns="http://www.w3.org/2000/svg">
<mask id="mask0" mask-type="alpha" maskUnits="userSpaceOnUse" x="0" y="0" width="21" height="22">
<path fill-rule="evenodd" clip-rule="evenodd" d="M0.285156 0.458008H20.8455V21.3849H0.285156V0.458008Z" fill="white"/>
</mask>
<g mask="url(#mask0)">
<path fill-rule="evenodd" clip-rule="evenodd" d="M15.1103 19.9334C15.8678 20.9385 17.1663 21.3849 18.2485 21.3849C19.7635 21.3849 20.8456 20.3241 20.8456 19.0963V2.74546C20.8456 1.46194 19.8176 0.458008 18.6272 0.458008H18.519C17.2746 0.458008 16.3006 1.51775 16.3006 2.74546V14.6319L6.02043 1.90838C5.26294 0.90389 3.96439 0.458008 2.88226 0.458008C1.36728 0.458008 0.285156 1.51775 0.285156 2.74546V19.0963C0.285156 20.3804 1.31318 21.3849 2.50352 21.3849H2.61173C3.85618 21.3849 4.83009 20.3241 4.83009 19.0963V7.20987L15.1103 19.9334Z" fill="white"/>
</g>
<mask id="mask1" mask-type="alpha" maskUnits="userSpaceOnUse" x="77" y="0" width="21" height="22">
<path fill-rule="evenodd" clip-rule="evenodd" d="M77.3789 0.401367H97.723V21.4399H77.3789V0.401367Z" fill="white"/>
</mask>
<g mask="url(#mask1)">
<path fill-rule="evenodd" clip-rule="evenodd" d="M97.0736 17.3661L90.7973 10.8927L97.0736 4.41933C97.9398 3.52645 97.9398 2.07552 97.0736 1.18264L96.9659 1.07103C96.0997 0.178147 94.6935 0.178147 93.8272 1.07103L88.3625 6.70734L87.9837 7.09798L87.7678 7.3212C87.6596 7.43281 87.5509 7.43281 87.4427 7.3212L87.1721 7.04217L86.848 6.70734L81.3828 1.07103C80.5171 0.178147 79.1108 0.178147 78.2446 1.07103L78.1364 1.18264C77.2707 2.07552 77.2707 3.52645 78.1364 4.41933L84.3045 10.8927L78.0282 17.3661C77.1625 18.259 77.1625 19.7099 78.0282 20.6028L78.1364 20.7144C79.0026 21.6073 80.4089 21.6073 81.2746 20.7144L86.7393 15.0781L87.1186 14.6875L87.3345 14.4642C87.4427 14.3526 87.5509 14.3526 87.6596 14.4642L87.8214 14.6317L88.3084 15.1339L93.7731 20.7702C94.6388 21.6631 96.0461 21.6631 96.9113 20.7702L97.0195 20.6586C97.9398 19.7099 97.9398 18.259 97.0736 17.3661Z" fill="white"/>
</g>
<path fill-rule="evenodd" clip-rule="evenodd" d="M60.5497 19.9695C59.7922 20.9879 58.4937 21.4403 57.4116 21.4403C55.8966 21.4403 54.8145 20.3653 54.8145 19.1212V2.55232C54.8145 1.25169 55.8425 0.234375 57.0328 0.234375H57.141C58.3855 0.234375 59.3594 1.30824 59.3594 2.55232V14.5973L69.6396 1.70409C70.397 0.686203 71.6956 0.234375 72.7777 0.234375C74.2927 0.234375 75.3748 1.30824 75.3748 2.55232V19.1212C75.3748 20.4224 74.3468 21.4403 73.1565 21.4403H73.0483C71.8038 21.4403 70.8299 20.3653 70.8299 19.1212V7.07626L60.5497 19.9695Z" fill="white"/>
<path fill-rule="evenodd" clip-rule="evenodd" d="M51.2398 2.43759C51.2398 1.22582 50.4183 0.234375 49.4519 0.234375C48.4855 0.234375 47.6641 1.22582 47.6641 2.43759V7.7253C47.6641 7.83546 47.7607 7.94562 47.8573 7.94562H51.0465C51.1431 7.94562 51.2398 7.83546 51.2398 7.7253V2.43759Z" fill="white"/>
<path fill-rule="evenodd" clip-rule="evenodd" d="M51.2398 10.1032C51.2398 9.98814 51.1431 9.87305 51.0465 9.87305H47.8573C47.7607 9.87305 47.6641 9.98814 47.6641 10.1032V19.1956C47.6641 20.4041 48.4855 21.4399 49.4519 21.4399C50.4183 21.4399 51.2398 20.4616 51.2398 19.1956V10.1032Z" fill="white"/>
<path fill-rule="evenodd" clip-rule="evenodd" d="M45.875 10.0085H33.0066C31.807 10.0085 30.8255 10.8659 30.8255 12.0663C30.8255 13.2666 31.807 14.0668 33.0066 14.0668H39.4953L37.7504 17.1534C37.6414 17.382 37.4778 17.4392 37.2597 17.4392H30.9346C30.6619 17.4392 30.5529 17.382 30.4438 17.1534L27.2267 10.9802C27.1177 10.8088 27.1177 10.6373 27.2267 10.4086L30.4438 4.40697C30.5529 4.17834 30.7164 4.12118 30.9346 4.12118H37.2597C37.5323 4.12118 37.6414 4.17834 37.805 4.40697L39.7679 7.8365C39.877 8.00798 39.9315 8.06514 40.1496 8.06514H44.6208L40.3132 0.46301C40.2042 0.291534 40.0951 0.234375 39.877 0.234375H28.3173C28.0446 0.234375 27.9356 0.348693 27.8265 0.577328L22.7555 10.3515C22.5919 10.6373 22.5919 10.8088 22.7555 11.0946L28.0991 21.1545C28.2082 21.3831 28.3718 21.4403 28.6444 21.4403H39.7134C39.986 21.4403 40.1496 21.3832 40.2587 21.0974L45.875 10.0085Z" fill="white"/>
</svg>
