<svg width="119" height="19" viewBox="0 0 119 19" fill="none" xmlns="http://www.w3.org/2000/svg">
<mask id="mask0" mask-type="alpha" maskUnits="userSpaceOnUse" x="0" y="0" width="119" height="19">
<path fill-rule="evenodd" clip-rule="evenodd" d="M0.445312 0.212891H118.541V18.341H0.445312V0.212891Z" fill="white"/>
</mask>
<g mask="url(#mask0)">
<path fill-rule="evenodd" clip-rule="evenodd" d="M112.583 8.19465V10.6636H114.31V13.1122C114.319 13.3382 114.304 13.5654 114.262 13.7887C113.938 14.7431 112.902 15.2531 111.95 14.9264C111.416 14.7438 110.996 14.3237 110.815 13.7887C110.78 13.5648 110.765 13.3382 110.768 13.1122V5.36044C110.762 5.09258 110.786 4.82472 110.842 4.56227C111.134 3.62813 112.125 3.10864 113.057 3.40153C113.609 3.57469 114.042 4.00895 114.216 4.56227C114.251 4.78616 114.268 5.01209 114.27 5.23869V6.17891H118.48V5.62425C118.501 5.25019 118.501 4.87545 118.48 4.50139C118.163 1.32897 115.551 0.321106 112.563 0.321106C109.573 0.321106 107.008 1.33574 106.637 4.50139C106.637 4.79225 106.55 5.3131 106.55 5.62425V12.7334C106.551 13.1068 106.574 13.4789 106.617 13.8495C106.894 16.934 109.566 18.0298 112.548 18.0298C115.531 18.0298 118.203 16.934 118.48 13.8495C118.528 13.2813 118.534 13.0446 118.541 12.7334V8.20141L112.583 8.19465ZM83.276 0.754028H79.0045V13.2678C79.0174 13.4944 79.0032 13.721 78.9647 13.9442C78.711 14.8385 77.7811 15.358 76.8891 15.1036C76.329 14.944 75.8917 14.505 75.7325 13.9442C75.6906 13.7217 75.6771 13.4944 75.692 13.2678V0.754028H71.4273V12.8823C71.4273 13.1934 71.4273 13.836 71.4671 13.9983C71.7647 17.1572 74.2473 18.1854 77.352 18.1854C80.456 18.1854 82.9453 17.1572 83.2429 13.9983C83.2773 13.627 83.2888 13.2543 83.276 12.8823V0.754028ZM44.0578 0.754028L41.9254 13.9781L39.7998 0.754028H32.9163L32.5519 17.6646H36.7693L36.8841 2.00541L39.7863 17.6646H44.0638L46.9661 2.00541L47.0808 17.6646H51.3118L50.9339 0.754028H44.0578ZM18.5635 0.754028L15.4398 17.6646H20.0014L22.3565 2.00541L24.6575 17.6646H29.1854L26.0746 0.754028H18.5635ZM98.1895 14.3771L94.1873 0.754028H87.9259V17.4812H92.0691L91.8255 3.42589L96.1179 17.4812H102.124V0.754028H97.9527L98.1895 14.3771ZM59.8681 5.15753C59.8114 4.86937 59.8114 4.5731 59.8681 4.28495C59.9983 3.5605 60.6704 3.06469 61.3992 3.15533C62.1833 3.08633 62.8736 3.6667 62.9431 4.45202C62.9492 4.52711 62.9499 4.60219 62.9445 4.67727V5.71219H67.108V4.53522C67.108 0.889319 63.8487 0.314362 61.4869 0.314362C58.5118 0.314362 56.0893 1.29517 55.6439 4.04144C55.5062 4.78753 55.5197 5.55323 55.6844 6.29391C56.4064 9.7166 62.3446 10.7042 63.2083 12.8687C63.3217 13.2739 63.3217 13.7021 63.2083 14.1066C63.0801 14.668 62.7022 15.2362 61.5821 15.2362C60.7649 15.3404 60.0179 14.762 59.9133 13.9429C59.9039 13.8698 59.9005 13.7947 59.9018 13.721V12.0699H55.4212V13.3625C55.4212 17.1031 58.3431 18.2327 61.4944 18.2327C64.5107 18.2327 67 17.1978 67.3988 14.4042C67.5513 13.4978 67.5513 12.5718 67.3988 11.6647C66.6768 8.17436 60.3472 7.11915 59.8681 5.15753ZM4.98059 5.11694C4.91783 4.82473 4.91783 4.52305 4.98059 4.23083C5.10812 3.49691 5.78832 2.99366 6.52586 3.08768C7.32009 3.01868 8.01985 3.60852 8.08868 4.40467C8.09475 4.47773 8.0961 4.5501 8.0907 4.62316V5.67161H12.3021V4.48111C12.3021 0.801377 8.98818 0.212891 6.60684 0.212891C3.61076 0.212891 1.16059 1.20723 0.708481 3.97379C0.559352 4.72665 0.559352 5.50115 0.708481 6.25333C1.43793 9.70984 7.4564 10.7109 8.30731 12.9025C8.42878 13.3104 8.42878 13.7454 8.30731 14.1539C8.14739 14.9129 7.42536 15.4141 6.66082 15.2971C5.83555 15.3979 5.08518 14.8101 4.98396 13.9835C4.97452 13.907 4.97114 13.8313 4.97384 13.7548V12.1247H0.445312V13.4227C0.445312 17.2046 3.40765 18.341 6.57985 18.341C9.62991 18.341 12.1334 17.2993 12.5383 14.4651C12.6901 13.5492 12.6901 12.6144 12.5383 11.6985C11.8635 8.14731 5.45969 7.09886 4.98059 5.11694Z" fill="white"/>
</g>
</svg>
