<svg width="114" height="36" viewBox="0 0 114 36" fill="none" xmlns="http://www.w3.org/2000/svg">
<mask id="mask0" mask-type="alpha" maskUnits="userSpaceOnUse" x="0" y="0" width="114" height="36">
<path fill-rule="evenodd" clip-rule="evenodd" d="M0.775391 0.160156H113.931V35.6191H0.775391V0.160156Z" fill="white"/>
</mask>
<g mask="url(#mask0)">
<path fill-rule="evenodd" clip-rule="evenodd" d="M31.2851 28.8751C31.0376 30.7209 29.8001 32.3183 28.0676 33.0287C27.2194 33.3835 26.3002 33.4897 25.3811 33.3835C24.4979 33.2773 23.6137 32.9927 22.6956 32.4606C21.4221 31.7501 20.1497 30.6498 18.6647 29.0174C20.998 26.1414 22.4121 23.5149 22.9431 21.173C23.1906 20.0727 23.2255 19.0786 23.1187 18.1557C22.978 17.2679 22.6596 16.4522 22.1646 15.7427C21.0689 14.1443 19.2306 13.2214 17.1808 13.2214C15.1309 13.2214 13.2927 14.1804 12.1969 15.7427C11.7019 16.4522 11.3835 17.2679 11.2418 18.1557C11.1001 19.0786 11.136 20.1078 11.4185 21.173C11.9494 23.5149 13.3984 26.1774 15.6958 29.0534C14.2467 30.6859 12.9384 31.7851 11.666 32.4956C10.7468 33.0287 9.86362 33.3123 8.97941 33.4186C8.02535 33.5258 7.10622 33.3835 6.29287 33.0638C4.56139 32.3543 3.3239 30.757 3.0764 28.9102C2.96962 28.0233 3.04048 27.1364 3.39476 26.1414C3.50054 25.7876 3.67718 25.4319 3.85382 25.007C4.10132 24.4378 4.38375 23.8356 4.66717 23.2313L4.7021 23.1602C7.14115 17.8721 9.75783 12.4769 12.4793 7.2239L12.5851 7.01045C12.8675 6.47734 13.1509 5.91015 13.4334 5.37804C13.7168 4.80986 14.0341 4.27775 14.4234 3.81578C15.1659 2.96401 16.1558 2.50304 17.2506 2.50304C18.3474 2.50304 19.3374 2.96401 20.0789 3.81578C20.4681 4.27775 20.7864 4.80986 21.0689 5.37804C21.3513 5.91015 21.6347 6.47734 21.9171 7.01045L22.0239 7.2239C24.7105 12.5119 27.3262 17.9072 29.7652 23.1962V23.2313C30.0476 23.7995 30.2951 24.4378 30.5786 25.007C30.7552 25.4319 30.9318 25.7876 31.0376 26.1414C31.32 27.0643 31.4268 27.9522 31.2851 28.8751ZM17.1808 27.2066C15.2716 24.7936 14.0341 22.5218 13.61 20.6048C13.4334 19.7891 13.3984 19.0786 13.5042 18.4403C13.5751 17.8721 13.7866 17.3751 14.0701 16.9492C14.7417 15.9912 15.8724 15.3879 17.1808 15.3879C18.4881 15.3879 19.6547 15.9551 20.2914 16.9492C20.5739 17.3751 20.7864 17.8721 20.8573 18.4403C20.9631 19.0786 20.9281 19.8242 20.7505 20.6048C20.3274 22.4857 19.0899 24.7585 17.1808 27.2066ZM33.1234 25.3607C32.9467 24.9348 32.7691 24.4729 32.5935 24.0841C32.31 23.4447 32.0276 22.8415 31.7801 22.2733L31.7442 22.2372C29.3051 16.9131 26.6894 11.5179 23.932 6.19375L23.8263 5.9813C23.5438 5.44819 23.2604 4.88101 22.978 4.31282C22.6247 3.67449 22.2714 2.99908 21.7046 2.36075C20.5739 0.940785 18.9482 0.160156 17.2157 0.160156C15.4483 0.160156 13.8575 0.940785 12.6909 2.2896C12.1609 2.92793 11.7717 3.60334 11.4185 4.24167C11.136 4.80986 10.8526 5.37804 10.5702 5.91015L10.4644 6.1226C7.74192 11.4467 5.0913 16.843 2.65226 22.1671L2.61633 22.2372C2.36883 22.8054 2.08641 23.4087 1.80298 24.048C1.62734 24.4378 1.4497 24.8647 1.27306 25.3257C0.813991 26.6394 0.672279 27.881 0.84892 29.1587C1.23813 31.8212 3.00554 34.0579 5.44459 35.051C6.36372 35.4418 7.31778 35.6191 8.30777 35.6191C8.5902 35.6191 8.94448 35.5831 9.22691 35.548C10.3935 35.4067 11.5951 35.0159 12.7617 34.3415C14.2108 33.5258 15.59 32.3543 17.1458 30.6498C18.7007 32.3543 20.1148 33.5258 21.5289 34.3415C22.6956 35.0159 23.8971 35.4067 25.0637 35.548C25.3462 35.5831 25.6995 35.6191 25.9829 35.6191C26.9719 35.6191 27.9619 35.4418 28.8461 35.051C31.32 34.0579 33.0525 31.7851 33.4417 29.1587C33.7242 27.9171 33.5824 26.6745 33.1234 25.3607ZM68.3658 12.8667C69.3917 12.8667 69.9217 13.044 69.9217 13.044V16.2036C69.9217 16.2036 67.0944 15.2446 65.326 17.2679V26.6033H61.9329V13.2214H64.7961C65.0785 13.2214 65.2911 13.4699 65.2911 13.7184V14.2866C65.9268 13.5411 67.306 12.8667 68.3658 12.8667ZM77.5572 23.6923C76.2498 23.6923 75.2239 23.0179 74.694 22.2372V17.4813C75.2239 16.7718 76.3556 16.0263 77.5572 16.0263C79.8196 16.0263 81.552 17.4462 81.552 19.8593C81.552 22.2733 79.8196 23.6923 77.5572 23.6923ZM78.123 12.8667C75.7897 12.8667 74.694 14.2866 74.694 14.2866V6.797H71.3009V26.5683H74.164C74.4465 26.5683 74.659 26.3197 74.659 26.0712V25.468C74.659 25.468 75.7548 26.923 78.0871 26.923C81.9403 26.923 84.9462 23.9408 84.9462 19.8953C84.9811 15.8489 81.9762 12.8667 78.123 12.8667ZM98.5186 18.6527V26.6033H95.1255V19.0426C95.1255 16.843 94.4189 15.9551 92.5098 15.9551C91.4849 15.9551 90.424 16.4872 89.7524 17.2679V26.5683H86.3593V13.2214H89.0458C89.3282 13.2214 89.5408 13.4699 89.5408 13.7184V14.2866C90.5298 13.2575 91.8382 12.8667 93.1455 12.8667C94.6315 12.8667 95.868 13.2926 96.858 14.1443C98.0595 15.1384 98.5186 16.4161 98.5186 18.6527ZM106.543 23.6923C105.236 23.6923 104.21 23.0179 103.68 22.2372V17.4813C104.21 16.7718 105.342 16.0263 106.543 16.0263C108.806 16.0263 110.538 17.4462 110.538 19.8593C110.538 22.2733 108.806 23.6923 106.543 23.6923ZM107.109 12.8667C104.777 12.8667 103.68 14.2866 103.68 14.2866V6.797H100.287V26.5683H103.15C103.433 26.5683 103.645 26.3197 103.645 26.0712V25.468C103.645 25.468 104.74 26.923 107.073 26.923C110.927 26.923 113.931 23.9408 113.931 19.8953C113.931 15.8489 110.927 12.8667 107.109 12.8667ZM56.4181 26.5683H59.8122V13.2214H56.4181V26.5683ZM50.9392 22.2733C50.4093 23.0539 49.3484 23.7283 48.076 23.7283C45.8136 23.7283 44.0811 22.3084 44.0811 19.8953C44.0811 17.4813 45.8136 16.0613 48.076 16.0613C49.3125 16.0613 50.4442 16.7718 50.9392 17.5174V22.2733ZM50.9392 13.7184V14.2866C50.9392 14.2866 49.8434 12.8667 47.5102 12.8667C43.657 12.8667 40.6531 15.8128 40.6531 19.8953C40.6531 23.9408 43.6221 26.923 47.5102 26.923C49.8784 26.923 50.9392 25.468 50.9392 25.468V26.0712C50.9392 26.3548 51.1508 26.5683 51.4342 26.5683H54.2974V13.2214H51.4342C51.1508 13.2214 50.9392 13.4699 50.9392 13.7184ZM60.413 9.06875C60.413 10.3474 59.387 11.3766 58.1156 11.3766C56.8422 11.3766 55.8173 10.3474 55.8173 9.06875C55.8173 7.79108 56.8073 6.76193 58.1156 6.76193C59.423 6.79701 60.413 7.82716 60.413 9.06875Z" fill="white"/>
</g>
</svg>
