<svg width="139" height="35" viewBox="0 0 139 35" fill="none" xmlns="http://www.w3.org/2000/svg">
<path fill-rule="evenodd" clip-rule="evenodd" d="M33.991 21.4893H35.3082L35.3834 12.1325H33.8594V10.7012H43.1166L43.192 13.9132H41.4421L41.3286 12.1325H37.4908L37.4531 15.9032H41.2162V17.4394H37.4531L37.4155 21.4893H41.4421L41.5926 19.4995H43.3613L43.2108 22.9208H33.991V21.4893Z" fill="white"/>
<path fill-rule="evenodd" clip-rule="evenodd" d="M33.9958 21.7764H35.3589L35.4394 11.8455H33.8594V10.7012H43.1192L43.1895 13.6735H41.704L41.5865 11.8455H37.2891L37.2471 16.0417H41.1468V17.2936H37.2501L37.2081 21.7764H41.7024L41.8581 19.7336H43.3613L43.2199 22.9208H33.9958V21.7764Z" fill="white"/>
<path fill-rule="evenodd" clip-rule="evenodd" d="M34.0008 22.9213V22.1443H35.4133L35.4996 12.4184H33.8594V11.6416H43.1216L43.1864 14.152H41.9852L41.8632 12.4184H37.0725L37.0255 16.706H41.0719V17.5849H37.0319L36.9852 22.1443H41.9815L42.1432 20.2071H43.3613L43.2293 22.9213H34.0008Z" fill="white"/>
<path fill-rule="evenodd" clip-rule="evenodd" d="M36.7868 16.8484H40.9915V17.435H36.797L36.7451 22.4395H42.2826L42.4506 20.4478H43.3613L43.2399 22.9213H34.0063V22.4395H35.4721L35.5644 12.1233H33.8594V11.6416H43.1244L43.1836 13.9056H42.2884L42.1617 12.1233H36.8392L36.7868 16.8484Z" fill="white"/>
<path fill-rule="evenodd" clip-rule="evenodd" d="M33.9969 22.9213V22.7517H35.3677L35.4569 11.811H33.8594V11.6416H42.2007L42.2483 13.6449H41.7403L41.6217 11.811H36.3144L36.262 16.9989H40.1999V17.2763H36.2747L36.2231 22.7517H41.7329L41.8903 20.7024H42.4111L42.3121 22.9213H33.9969Z" fill="white"/>
<path fill-rule="evenodd" clip-rule="evenodd" d="M45.3555 10.8232H50.3726V12.2395H49.0131L50.612 16.2375L52.2111 20.2357C52.2748 20.397 52.3291 20.5695 52.3739 20.7536C52.4185 20.938 52.4663 21.1164 52.5175 21.2891H52.5558C52.6067 21.1164 52.6546 20.938 52.6995 20.7536C52.744 20.5695 52.7983 20.397 52.8621 20.2357L54.4324 16.2375L56.0029 12.2395H54.4516V10.8232H59.3541V12.2395H58.1475L55.8495 17.576L53.5515 22.9124H51.177L48.8504 17.576L46.5235 12.2395H45.3555V10.8232Z" fill="white"/>
<path fill-rule="evenodd" clip-rule="evenodd" d="M45.5195 10.9795H49.9094L50.2091 11.3743L49.4551 12.0824L49.0121 12.6747L50.2361 15.7348L50.5942 16.6305L51.9386 19.9917C51.9674 20.0647 52.1125 20.4446 52.1332 20.5298C52.1876 20.7037 52.2395 20.8824 52.2883 21.0637C52.298 21.1038 52.3417 21.2573 52.3521 21.2963C52.3655 21.3469 52.5419 21.3966 52.5564 21.4453H52.68C52.6913 21.4073 52.7359 21.2544 52.7466 21.2152C52.7739 21.1182 52.8005 21.0189 52.8263 20.9182C52.8488 20.829 52.8724 20.7408 52.8966 20.6536C52.9207 20.5675 52.9486 20.4845 52.9757 20.4034C52.9887 20.3645 53.045 20.2154 53.0593 20.1793L54.5226 16.4539L54.7344 15.9144L56.0737 12.5048L55.7539 12.0824H55.1826L54.6156 11.5258V11.2272L54.8807 10.9795H59.1905V11.8068L58.9249 12.0824H58.3325L57.9362 12.3188L55.7401 17.4189L53.5011 22.6183L53.2796 22.7553H51.2865L48.9597 17.4189L46.735 12.3161L46.3431 12.0824H45.7795L45.5195 11.8089V10.9795Z" fill="white"/>
<path fill-rule="evenodd" clip-rule="evenodd" d="M51.3959 22.5992L49.0691 17.2627L46.7424 11.9261H45.6836V11.1367H50.0455V11.9261H48.5374L50.2214 16.1369L51.9056 20.3477C51.9632 20.4937 52.0137 20.6546 52.0553 20.8249C52.1003 21.0112 52.15 21.1963 52.2027 21.3746L52.2701 21.6026H52.8045L52.8716 21.3741C52.9236 21.1977 52.9732 21.0129 53.0189 20.8247C53.0602 20.6546 53.1107 20.4939 53.169 20.3468L54.8226 16.1364L56.4763 11.9261H54.7797V11.1367H59.0269V11.9261H57.9286L55.6306 17.2627L53.3326 22.5992H51.3959Z" fill="white"/>
<path fill-rule="evenodd" clip-rule="evenodd" d="M45.8477 11.7692V11.293H49.8819V11.7692H48.2996L51.7528 20.4034C51.8078 20.5425 51.8561 20.6965 51.896 20.86C51.9417 21.049 51.9918 21.2365 52.0454 21.417L52.1464 21.759H52.9287L53.0296 21.4163C53.0824 21.2373 53.1325 21.0501 53.1789 20.8599C53.2184 20.6966 53.2667 20.5425 53.3224 20.4019L56.7131 11.7692H54.9438V11.293H58.8633V11.7692H57.8191L53.2233 22.4423H51.5054L46.8519 11.7692H45.8477Z" fill="white"/>
<path fill-rule="evenodd" clip-rule="evenodd" d="M51.6147 22.2861L46.9613 11.613H46.0117V11.4502H49.7183V11.613H48.0618L51.6 20.4599C51.6523 20.5921 51.6985 20.7392 51.7366 20.8962C51.7828 21.0874 51.8338 21.2772 51.8878 21.4601L52.0228 21.916H53.053L53.1875 21.4592C53.241 21.2775 53.2918 21.0879 53.3385 20.8958C53.3765 20.7395 53.4227 20.5921 53.4758 20.458L56.9499 11.613H55.1078V11.4502H58.6997V11.613H57.7097L53.1136 22.2861H51.6147Z" fill="white"/>
<path fill-rule="evenodd" clip-rule="evenodd" d="M60.5965 21.4893H61.9136L61.9887 12.1325H60.4648V10.7012H69.7221L69.7976 13.9132H68.0477L67.9342 12.1325H64.0962L64.0587 15.9032H67.8218V17.4394H64.0587L64.0208 21.4893H68.0477L68.1982 19.4995H69.9668L69.8163 22.9208H60.5965V21.4893Z" fill="white"/>
<path fill-rule="evenodd" clip-rule="evenodd" d="M59.652 21.7764H61.015L61.0955 11.8455H59.5156V10.7012H68.7753L68.8458 13.6735H67.3604L67.2427 11.8455H62.9454L62.9032 16.0417H66.803V17.2936H62.9064L62.8642 21.7764H67.3584L67.5143 19.7336H69.0175L68.876 22.9208H59.652V21.7764Z" fill="white"/>
<path fill-rule="evenodd" clip-rule="evenodd" d="M59.6571 22.9213V22.1443H61.0694L61.1559 12.4184H59.5156V11.6416H68.7778L68.8429 14.152H67.6416L67.5196 12.4184H62.7288L62.6816 16.706H66.7282V17.5849H62.6882L62.6413 22.1443H67.6379L67.7997 20.2071H69.0175L68.8858 22.9213H59.6571Z" fill="white"/>
<path fill-rule="evenodd" clip-rule="evenodd" d="M59.5156 12.1234V11.6416H68.7806L68.8399 13.9057H67.9448L67.8182 12.1234H62.4955L62.4431 16.8484H66.6477V17.435H62.4533L62.4012 22.4395H67.939L68.1068 20.4477H69.0175L68.8963 22.9213H59.6626V22.4395H61.1282L61.2207 12.1234H59.5156Z" fill="white"/>
<path fill-rule="evenodd" clip-rule="evenodd" d="M60.6024 22.9213V22.7517H61.973L62.0623 11.811H60.4648V11.6416H68.8062L68.8538 13.6449H68.3459L68.2273 11.811H62.9198L62.8673 16.9989H66.8055V17.2763H62.8801L62.8283 22.7517H68.3385L68.4957 20.7024H69.0166L68.9177 22.9213H60.6024Z" fill="white"/>
<path fill-rule="evenodd" clip-rule="evenodd" d="M82.1763 22.0585C81.9589 22.0585 81.7545 22.0078 81.5626 21.9062C81.3708 21.8049 81.179 21.6049 80.9872 21.3063L79.5294 19.0139C79.2993 18.6557 79.0499 18.3453 78.7815 18.0825C78.5129 17.8199 78.1932 17.6766 77.8224 17.6528V17.6169C78.2444 17.5809 78.6502 17.4887 79.0404 17.3392C79.4303 17.1901 79.7723 16.9811 80.0666 16.7124C80.3607 16.4437 80.5938 16.1097 80.7666 15.7094C80.9393 15.3095 81.0256 14.8408 81.0256 14.3035C81.0256 13.8499 80.9422 13.4201 80.7763 13.0141C80.6099 12.6082 80.3607 12.256 80.0281 11.9574C79.6955 11.6589 79.2736 11.423 78.7621 11.2499C78.2507 11.077 77.6498 10.9902 76.9593 10.9902H70.9941V12.4588H72.3943L72.3175 22.0585H70.9941V23.5272H76.0195V22.0585H74.4658L74.5042 18.1899H75.6585C75.8123 18.1899 75.9503 18.2051 76.0722 18.2347C76.1938 18.2646 76.3126 18.3215 76.428 18.405C76.5433 18.4885 76.6554 18.5991 76.7645 18.7362C76.8736 18.8735 76.9985 19.056 77.1398 19.2824L78.9864 22.2019C79.1787 22.5124 79.3614 22.7542 79.5345 22.9272C79.7078 23.1004 79.8873 23.2316 80.0735 23.3212C80.2591 23.4107 80.4613 23.4675 80.6793 23.4913C80.8973 23.5155 81.147 23.5272 81.4282 23.5272H82.6752V22.0585H82.1763ZM76.1803 16.614H74.5042L74.5426 12.4588H76.3342C77.1178 12.4588 77.7183 12.638 78.136 12.996C78.5534 13.3543 78.7621 13.862 78.7621 14.5185C78.7621 15.1991 78.5245 15.7185 78.0493 16.0767C77.5739 16.4348 76.9509 16.614 76.1803 16.614Z" fill="white"/>
<path fill-rule="evenodd" clip-rule="evenodd" d="M71.1582 11.1523V11.9884L71.4567 12.2961H72.2802L72.5576 12.5573L72.4824 21.9562L72.1998 22.2206H71.4552L71.1582 22.5286V23.3643H75.8554V22.547L75.5246 22.2206H74.6302L74.3033 21.8958L74.3417 18.0272H75.4938C75.5707 18.0272 75.8044 18.0348 75.8654 18.0496C75.9982 18.0646 76.1245 18.1005 76.2458 18.1525C76.2714 18.1635 76.2968 18.1746 76.3221 18.1869C76.4299 18.24 76.5349 18.3128 76.638 18.4027C76.6688 18.4298 76.7002 18.4589 76.732 18.4901C76.8454 18.6013 76.9629 18.7409 77.0812 18.9086C77.1394 18.9822 77.3883 19.3674 77.4628 19.4869L78.9447 21.8297C79.0127 21.9393 79.2598 22.3189 79.323 22.3942C79.3705 22.46 79.4175 22.521 79.4636 22.5772C79.6072 22.7526 79.7511 22.8911 79.8917 22.9949C79.9099 23.0084 79.928 23.0217 79.9463 23.0344C80.083 23.1299 80.2264 23.2015 80.3746 23.2491C80.4204 23.2639 80.4673 23.2768 80.5152 23.288C80.6299 23.3146 80.7527 23.3336 80.883 23.3435C80.9998 23.3525 81.1258 23.3583 81.2608 23.3612C81.3137 23.3633 81.5357 23.3643 81.5946 23.3643H82.5112V22.5434L82.4259 22.4545C82.3465 22.4545 82.2692 22.2097 82.1948 22.1878C82.1422 22.1725 81.9238 22.1517 81.8744 22.1255C81.8517 22.1133 81.747 22.0995 81.7249 22.0841C81.5408 22.031 81.3667 21.9311 81.1987 21.7837C81.1481 21.7395 81.0974 21.6888 81.0469 21.6311C80.9806 21.5751 80.7492 21.2355 80.6831 21.1325L79.552 19.354C79.4966 19.2676 79.2773 18.9334 79.2168 18.8587C79.1106 18.7113 79.0007 18.5741 78.8873 18.4468C78.7327 18.274 78.5644 18.1408 78.3806 18.0415C78.3289 18.0137 78.2761 17.9889 78.2213 17.9681C78.1799 17.9359 77.983 17.899 77.9374 17.8768C77.8519 17.8352 77.7589 17.5239 77.6583 17.5174V17.4675C77.7098 17.4631 77.9106 17.4443 77.9612 17.4366C78.2743 17.3993 78.5796 17.3286 78.8743 17.2249C78.9474 17.1993 79.0191 17.1715 79.0898 17.1416C79.395 17.0129 79.6692 16.8425 79.9097 16.6326C79.9399 16.6063 79.9693 16.5793 79.9983 16.5517C80.2545 16.3069 80.4612 16.0034 80.6158 15.6453C80.7792 15.2666 80.8616 14.8172 80.8616 14.3032C80.8616 13.872 80.782 13.4606 80.6242 13.0748C80.4675 12.6927 80.2312 12.3586 79.9181 12.0774C79.6026 11.7947 79.1979 11.5689 78.7093 11.4034C78.2157 11.2365 77.6297 11.1523 76.9594 11.1523H71.1582ZM76.1803 16.7761H74.3387L74.3801 12.2961H76.3344C77.1567 12.2961 77.7961 12.4893 78.2434 12.873C78.6974 13.2627 78.9264 13.8138 78.9264 14.5181C78.9264 15.2505 78.6658 15.8159 78.1487 16.2056C77.6451 16.585 76.986 16.7761 76.1803 16.7761Z" fill="white"/>
<path fill-rule="evenodd" clip-rule="evenodd" d="M82.1763 22.3837C81.9052 22.3837 81.6466 22.3195 81.408 22.1933C81.1632 22.0638 80.9351 21.831 80.7095 21.4797L79.2525 19.1885C79.0368 18.8528 78.8008 18.5584 78.5507 18.3141C78.3382 18.1063 78.0929 17.9961 77.801 17.9771L77.4942 17.9575V17.3188L77.7943 17.2933C78.1838 17.2603 78.563 17.1739 78.9221 17.0363C79.2711 16.9029 79.5814 16.7136 79.8439 16.474C80.1024 16.2378 80.3114 15.9377 80.4648 15.5821C80.6192 15.2245 80.6973 14.7944 80.6973 14.3038C80.6973 13.8949 80.6215 13.502 80.4721 13.1365C80.3252 12.7779 80.1015 12.4623 79.8077 12.1984C79.5097 11.9312 79.1223 11.7154 78.6561 11.5577C78.1805 11.397 77.6097 11.3154 76.9592 11.3154H71.3223V12.1341H72.7249L72.643 22.3837H71.3223V23.2025H75.6913V22.3837H74.1343L74.1792 17.8652H75.6585C75.8365 17.8652 76.0019 17.8836 76.1514 17.9196C76.3139 17.9597 76.472 18.0348 76.6217 18.143C76.7599 18.2431 76.8946 18.375 77.0224 18.5355C77.1392 18.6827 77.2689 18.8713 77.4179 19.1103L79.2662 22.0323C79.4449 22.3206 79.6135 22.5448 79.7676 22.6987C79.9138 22.8451 80.0649 22.956 80.2171 23.0295C80.3682 23.1021 80.5359 23.149 80.7157 23.1687C80.9187 23.1911 81.1584 23.2025 81.4282 23.2025H82.3469V22.3837H82.1763ZM76.1803 16.9391H74.173L74.2173 12.1341H76.3342C77.1954 12.1341 77.8737 12.3415 78.3509 12.7508C78.8415 13.1719 79.0903 13.7667 79.0903 14.5187C79.0903 15.303 78.8069 15.9142 78.248 16.3354C77.7163 16.7361 77.0208 16.9391 76.1803 16.9391Z" fill="white"/>
<path fill-rule="evenodd" clip-rule="evenodd" d="M71.4863 11.4775V11.6512L71.7966 11.9714H72.599L72.8881 12.2431L72.8082 22.2696L72.5121 22.5458H71.7928L71.4863 22.865V23.0397H75.5272V22.8709L75.1975 22.5458H74.2978L73.9718 22.2205L74.0168 17.7025H75.4957C75.5539 17.7025 75.7727 17.7064 75.825 17.7142C75.8815 17.7183 75.9364 17.7243 75.9899 17.7323C76.1238 17.7521 76.2528 17.788 76.3754 17.8395C76.4118 17.8546 76.4477 17.8715 76.4835 17.8899C76.6343 17.9669 76.7797 18.0744 76.9188 18.208C77.0063 18.2913 77.0954 18.3901 77.1858 18.5037C77.2382 18.5719 77.3136 18.6676 77.3491 18.7222C77.4111 18.8003 77.6735 19.2062 77.7513 19.3308L79.2205 21.6537C79.2911 21.7679 79.5443 22.1551 79.6076 22.2273C79.6376 22.268 79.667 22.3061 79.6961 22.342C79.8306 22.5089 79.9642 22.639 80.0923 22.7325C80.1048 22.7417 80.1174 22.7503 80.1297 22.7591C80.2566 22.8475 80.3885 22.9121 80.5239 22.951C80.5329 22.9534 80.5418 22.956 80.5506 22.9584C80.6632 22.9893 80.7872 23.0106 80.9215 23.0205C81.0258 23.0285 81.1387 23.0337 81.2595 23.0364C81.3123 23.0387 81.5357 23.0397 81.5952 23.0397H82.183V22.8595C82.0804 22.8514 81.9815 22.5113 81.887 22.4722C81.8576 22.4602 81.7434 22.4465 81.7148 22.4314C81.4781 22.3778 81.2544 22.2647 81.0432 22.0925C80.9426 22.0106 80.844 21.911 80.7474 21.7919C80.6875 21.7317 80.4822 21.4262 80.424 21.3353L79.2348 19.4653C79.1951 19.4032 79.033 19.1545 78.9905 19.0989C78.8648 18.9194 78.7314 18.7555 78.5963 18.605C78.5194 18.5193 78.3748 18.4289 78.2233 18.3474C78.0237 18.2405 77.8077 18.1618 77.7186 18.1352C77.6763 18.1224 77.5796 17.9945 77.5325 17.9914L77.351 17.8694L77.33 17.8501L77.3309 17.3924C77.3309 17.3924 77.3609 17.2951 77.4091 17.2787C77.4451 17.2665 77.6413 17.2382 77.6928 17.2207C78.0601 17.1456 78.4831 17.022 78.7849 16.9121C78.8528 16.8873 78.9081 16.8662 78.9447 16.8506C79.2258 16.7315 79.4798 16.5767 79.699 16.384C79.7215 16.3642 79.7436 16.3438 79.7655 16.3232C79.9917 16.1078 80.1762 15.8371 80.314 15.518C80.4596 15.1804 80.5334 14.772 80.5334 14.3035C80.5334 13.9155 80.4617 13.5433 80.3201 13.1972C80.1845 12.8661 79.9832 12.5795 79.7141 12.3336C79.7043 12.3245 79.6942 12.3155 79.6841 12.3066C79.4104 12.065 79.0563 11.8679 78.6311 11.7207C78.6144 11.7149 78.5978 11.7094 78.5809 11.7039C78.1269 11.5537 77.5814 11.4775 76.9594 11.4775H71.4863ZM74.0547 11.9714H76.3343C77.2359 11.9714 77.9506 12.1922 78.4583 12.6278C78.9865 13.0811 79.2545 13.7171 79.2545 14.5184C79.2545 15.3561 78.9491 16.0108 78.3474 16.4644C78.085 16.6621 77.4669 16.9089 77.1256 17.0065C76.8332 17.0696 76.5176 17.1013 76.1803 17.1013H74.0074L74.0547 11.9714Z" fill="white"/>
<path fill-rule="evenodd" clip-rule="evenodd" d="M81.2534 22.4791C80.9575 22.3228 80.6889 22.0525 80.4315 21.652L78.9755 19.3621C78.7732 19.0472 78.5526 18.7722 78.3203 18.5446C78.209 18.4359 77.3674 18.2458 77.3674 18.2458L77.1659 17.7784L77.1676 17.2913C77.1676 17.2913 78.6828 16.7791 78.8037 16.7326C79.1142 16.6138 79.3893 16.4462 79.6214 16.2345C79.8455 16.0298 80.0276 15.7671 80.1629 15.4537C80.2997 15.1365 80.3691 14.7494 80.3691 14.3031C80.3691 13.9362 80.3015 13.5845 80.1681 13.258C80.0381 12.9408 79.8481 12.6728 79.5876 12.4386C79.3224 12.201 78.9732 12.0078 78.5499 11.8645C78.1086 11.7154 77.5734 11.6396 76.9592 11.6396H71.6504V11.8084H73.0557L72.9687 22.7079H71.6504V22.8768H75.3631V22.7079H73.8029L73.8541 17.5397H75.6584C75.8626 17.5397 76.0549 17.5612 76.2308 17.6036C76.4349 17.6541 76.6315 17.747 76.8154 17.8801C76.9186 17.9548 77.0184 18.0466 77.1159 18.1486C77.1689 18.2081 77.2659 18.316 77.2803 18.334C77.4043 18.4903 77.5405 18.6878 77.6959 18.9371L79.5457 21.8614C79.7113 22.1285 79.8644 22.3332 80.0007 22.4694C80.1212 22.5898 80.2421 22.6794 80.3606 22.7365C80.4777 22.793 80.6093 22.8294 80.7521 22.845C80.9428 22.8663 81.1702 22.8768 81.4281 22.8768H82.0187V22.7019C81.7503 22.6809 81.4936 22.6063 81.2534 22.4791ZM76.1802 17.2634H73.8418L73.892 11.8084H76.3342C77.2765 11.8084 78.0272 12.0427 78.5658 12.5044C79.1316 12.99 79.4184 13.6675 79.4184 14.518C79.4184 15.409 79.0915 16.1073 78.4468 16.5934C78.2489 16.7423 77.4016 17.0642 77.1659 17.1638C76.8606 17.2301 76.5316 17.2634 76.1802 17.2634Z" fill="white"/>
<path fill-rule="evenodd" clip-rule="evenodd" d="M83.5002 22.0585H84.8044L84.8812 12.4588H83.1934V10.9902H86.7226L92.9371 18.5661C93.0394 18.6976 93.148 18.8409 93.2632 18.9959C93.3782 19.1512 93.4964 19.3154 93.618 19.4884C93.7394 19.6616 93.8577 19.8286 93.9727 19.99C94.0879 20.1511 94.19 20.3034 94.2797 20.4467H94.3181L94.2413 12.4588H92.7453V10.9902H97.4253V12.4588H96.121L96.0443 23.5272H94.2989L87.5855 15.396C87.3939 15.1573 87.2147 14.9214 87.0486 14.6886C86.8823 14.4558 86.748 14.2498 86.6458 14.0706L86.6076 14.1065L86.6842 22.0585H88.161V23.5272H83.5002V22.0585Z" fill="white"/>
<path fill-rule="evenodd" clip-rule="evenodd" d="M83.3574 11.1523H86.4794L86.7423 11.2716L92.8096 18.6683C92.9086 18.7957 93.0165 18.9378 93.1311 19.092C93.2451 19.246 93.3624 19.4091 93.4832 19.581C93.6048 19.7544 93.7234 19.9219 93.8388 20.0833C93.9507 20.24 94.0515 20.3901 94.1404 20.5319L94.2077 20.6089L94.4812 20.337L94.4098 12.9162L93.772 12.2961H93.541L92.9094 11.6649V11.4555L93.2143 11.1523H97.2612V11.9905L96.9662 12.2961H96.2375L95.9562 12.5578L95.8814 23.3643H94.6046L94.2365 23.1947L87.84 15.4473C87.798 15.3948 87.6293 15.188 87.5895 15.1357C87.4902 15.0088 87.3945 14.8827 87.303 14.7582C87.2194 14.6447 87.1417 14.5349 87.0695 14.4291C87.0074 14.3379 86.9513 14.252 86.9014 14.1713C86.8576 14.1059 86.717 13.8649 86.6853 13.8096L86.6494 13.8434L86.4454 14.3204L86.516 21.6381L87.1243 22.2206H87.3939L87.9969 22.8283V23.0794L87.7043 23.3643H83.6643V22.5286L83.9585 22.2206H84.6862L84.9693 21.9574L85.0444 12.5521L84.7766 12.2961H83.6531L83.3574 11.9889V11.1523Z" fill="white"/>
<path fill-rule="evenodd" clip-rule="evenodd" d="M94.4544 23.2025L87.8397 15.1907C87.6544 14.9598 87.4774 14.7269 87.3167 14.5015C87.1574 14.2785 87.0279 14.0799 86.9314 13.9111L86.7252 13.5493L86.278 13.9682L86.3591 22.3837H87.8328V23.2025H83.8283V22.3837H85.1301L85.2119 12.1341H83.5215V11.3154H86.5663L92.6823 18.7713C92.7779 18.8944 92.8852 19.0358 92.999 19.1888C93.112 19.3415 93.2285 19.5037 93.3486 19.6744C93.4704 19.8481 93.5892 20.0159 93.7047 20.1777C93.8133 20.3295 93.9128 20.4778 94.0009 20.6182L94.097 20.7718H94.6494L94.5665 12.1341H93.0735V11.3154H97.0971V12.1341H95.795L95.7184 23.2025H94.4544Z" fill="white"/>
<path fill-rule="evenodd" clip-rule="evenodd" d="M87.6686 22.5458V23.0397H83.9924V22.5458H85.2928L85.3771 11.9713H83.6855V11.4775H86.488L92.5547 18.8733C92.6471 18.9923 92.7536 19.1327 92.8667 19.2848C92.9789 19.4362 93.0946 19.5974 93.2139 19.767C93.3356 19.9407 93.4548 20.1088 93.5706 20.2711C93.6774 20.4206 93.7751 20.566 93.8612 20.7034L94.0056 20.934H94.8149L94.7288 11.9713H93.2375V11.4775H96.933V11.9713H95.6319L95.5553 23.0397H94.5322L87.9665 15.0873C87.7835 14.8594 87.6094 14.6298 87.4507 14.4074C87.2945 14.1889 87.1678 13.9949 87.0743 13.8308L86.7647 13.2884L86.1131 13.8984L86.1964 22.5458H87.6686Z" fill="white"/>
<path fill-rule="evenodd" clip-rule="evenodd" d="M94.6101 22.8778L88.0936 14.9851C87.913 14.7601 87.7413 14.5338 87.5849 14.3145C87.4317 14.1002 87.3081 13.9107 87.2172 13.7515L86.8045 13.0284L85.9483 13.8297L86.034 22.7089H87.5045V22.8778H84.1565V22.7089H85.4556L85.5425 11.8094H83.8496V11.6406H86.4097L92.4274 18.9762C92.5163 19.0911 92.6223 19.2307 92.7344 19.3816C92.846 19.5319 92.9608 19.6919 93.0793 19.8604C93.2011 20.0342 93.3205 20.2027 93.4367 20.3655C93.5417 20.5125 93.6375 20.6552 93.7219 20.7897L93.9144 21.0971H94.9806L94.8913 11.8094H93.4016V11.6406H96.7689V11.8094H95.4689L95.3925 22.8778H94.6101Z" fill="white"/>
<path fill-rule="evenodd" clip-rule="evenodd" d="M98.7285 17.4736C98.7285 16.4948 98.8882 15.5931 99.208 14.7693C99.5275 13.9454 99.9782 13.2379 100.56 12.647C101.142 12.0558 101.852 11.5963 102.689 11.2678C103.526 10.9396 104.463 10.7754 105.499 10.7754C106.471 10.7754 107.34 10.9216 108.108 11.214C108.875 11.5068 109.527 11.9216 110.064 12.4589C110.601 12.9961 111.01 13.653 111.292 14.4289C111.573 15.2053 111.714 16.0766 111.714 17.0438C111.714 17.8676 111.582 18.6825 111.321 19.4884C111.058 20.2944 110.656 21.0108 110.112 21.6378C109.569 22.2646 108.881 22.7721 108.05 23.1601C107.219 23.548 106.241 23.7422 105.116 23.7422C104.131 23.7422 103.245 23.5958 102.459 23.3034C101.673 23.0109 101.004 22.5931 100.455 22.0496C99.9047 21.5063 99.4794 20.8497 99.1791 20.0796C98.8787 19.3095 98.7285 18.4408 98.7285 17.4736ZM101.107 17.384C101.107 17.993 101.186 18.5782 101.347 19.1392C101.506 19.7005 101.756 20.199 102.095 20.6347C102.433 21.0708 102.859 21.4168 103.37 21.6735C103.881 21.9305 104.489 22.0586 105.192 22.0586C106.075 22.0586 106.787 21.8826 107.331 21.5302C107.874 21.1782 108.296 20.7483 108.597 20.2407C108.897 19.7334 109.096 19.1992 109.191 18.6377C109.287 18.0767 109.335 17.581 109.335 17.1513C109.335 16.5902 109.278 16.0318 109.163 15.4766C109.048 14.9215 108.84 14.4199 108.539 13.9722C108.239 13.5244 107.833 13.1604 107.321 12.8798C106.81 12.5994 106.158 12.4588 105.365 12.4588C104.802 12.4588 104.265 12.5514 103.754 12.7365C103.242 12.9217 102.788 13.2141 102.392 13.614C101.995 14.0143 101.682 14.5246 101.452 15.1454C101.222 15.7663 101.107 16.5127 101.107 17.384Z" fill="white"/>
<path fill-rule="evenodd" clip-rule="evenodd" d="M98.8926 17.4733C98.8926 16.5164 99.0493 15.6301 99.3611 14.8271C99.6718 14.026 100.113 13.3337 100.678 12.76C101.242 12.187 101.935 11.738 102.75 11.4184C103.566 11.0987 104.487 10.9375 105.499 10.9375C106.448 10.9375 107.302 11.0808 108.049 11.3654C108.792 11.6491 109.428 12.0533 109.947 12.5727C110.466 13.0918 110.865 13.7316 111.137 14.4835C111.411 15.2405 111.55 16.0977 111.55 17.0434C111.55 17.8481 111.42 18.6502 111.164 19.4383C110.909 20.2217 110.515 20.9226 109.988 21.5315C109.46 22.1396 108.788 22.6356 107.98 23.0129C107.173 23.3896 106.213 23.5794 105.116 23.5794C104.153 23.5794 103.283 23.4359 102.517 23.151C101.754 22.8673 101.102 22.46 100.571 21.9344C100.038 21.4084 99.6234 20.7676 99.3322 20.0207C99.0398 19.2711 98.8926 18.4182 98.8926 17.4733ZM100.943 17.3836C100.943 18.0067 101.025 18.6094 101.189 19.1831C101.354 19.7631 101.614 20.2823 101.964 20.7335C102.317 21.1877 102.763 21.551 103.296 21.8179C103.829 22.086 104.464 22.2207 105.192 22.2207C106.105 22.2207 106.851 22.0348 107.421 21.6659C107.984 21.3006 108.426 20.8508 108.738 20.3226C109.048 19.799 109.254 19.2437 109.353 18.6645C109.451 18.096 109.499 17.589 109.499 17.151C109.499 16.5801 109.441 16.0082 109.323 15.4436C109.204 14.8693 108.988 14.3462 108.676 13.882C108.362 13.4136 107.934 13.0302 107.401 12.7373C106.866 12.4439 106.184 12.2961 105.365 12.2961C104.784 12.2961 104.226 12.3924 103.697 12.5836C103.164 12.7768 102.687 13.0837 102.275 13.4999C101.863 13.9157 101.536 14.4479 101.298 15.089C101.062 15.7265 100.943 16.4951 100.943 17.3836Z" fill="white"/>
<path fill-rule="evenodd" clip-rule="evenodd" d="M105.116 23.4175C104.176 23.4175 103.321 23.277 102.575 22.9995C101.835 22.7244 101.2 22.3279 100.687 21.82C100.172 21.3112 99.7675 20.6863 99.4852 19.9629C99.2009 19.2339 99.0566 18.3965 99.0566 17.4739C99.0566 16.5389 99.2107 15.6681 99.5143 14.886C99.8162 14.1073 100.247 13.4305 100.795 12.874C101.341 12.3191 102.019 11.8804 102.81 11.5701C103.605 11.2585 104.51 11.1006 105.499 11.1006C106.426 11.1006 107.264 11.2408 107.99 11.5176C108.71 11.7924 109.33 12.1862 109.831 12.6877C110.331 13.1883 110.719 13.8111 110.983 14.539C111.25 15.2769 111.385 16.1198 111.385 17.044C111.385 17.8295 111.259 18.6188 111.008 19.3892C110.76 20.1499 110.375 20.8353 109.863 21.4263C109.352 22.0156 108.695 22.5002 107.91 22.8663C107.127 23.2321 106.186 23.4175 105.116 23.4175ZM105.365 12.1342C104.766 12.1342 104.187 12.2343 103.641 12.4315C103.085 12.633 102.586 12.9543 102.158 13.3868C101.73 13.818 101.389 14.3721 101.144 15.0337C100.901 15.6876 100.779 16.4785 100.779 17.3842C100.779 18.0213 100.863 18.6417 101.031 19.2279C101.201 19.8264 101.472 20.3666 101.835 20.8334C102.202 21.3056 102.668 21.686 103.222 21.9636C103.776 22.2424 104.439 22.3838 105.192 22.3838C106.135 22.3838 106.916 22.1882 107.511 21.8025C108.094 21.4241 108.555 20.9542 108.88 20.4054C109.2 19.8657 109.413 19.2893 109.515 18.6921C109.614 18.1163 109.664 17.598 109.664 17.1516C109.664 16.5711 109.603 15.9856 109.484 15.4116C109.361 14.8179 109.135 14.2734 108.813 13.7928C108.484 13.3036 108.036 12.901 107.481 12.5959C106.922 12.2895 106.21 12.1342 105.365 12.1342Z" fill="white"/>
<path fill-rule="evenodd" clip-rule="evenodd" d="M105.116 23.2547C104.195 23.2547 103.36 23.1176 102.632 22.8469C101.915 22.5803 101.299 22.1959 100.803 21.7046C100.304 21.212 99.9122 20.6062 99.6383 19.904C99.3613 19.1936 99.2207 18.376 99.2207 17.4736C99.2207 16.5586 99.371 15.7076 99.6674 14.944C99.9614 14.1861 100.38 13.5276 100.913 12.9871C101.443 12.4485 102.101 12.0225 102.87 11.7208C103.646 11.4169 104.531 11.2627 105.499 11.2627C106.405 11.2627 107.224 11.3993 107.931 11.6689C108.629 11.9355 109.229 12.3164 109.714 12.8016C110.198 13.2854 110.573 13.8883 110.828 14.5935C111.089 15.3138 111.221 16.1381 111.221 17.0437C111.221 17.8123 111.097 18.5847 110.852 19.339C110.611 20.079 110.237 20.7456 109.739 21.3202C109.243 21.8919 108.604 22.3626 107.84 22.7191C107.078 23.0747 106.162 23.2547 105.116 23.2547ZM105.365 11.9713C104.747 11.9713 104.148 12.0747 103.585 12.2786C103.006 12.4883 102.486 12.8228 102.041 13.2727C101.597 13.7204 101.243 14.2939 100.99 14.9773C100.741 15.6491 100.614 16.4588 100.614 17.3839C100.614 18.036 100.701 18.6712 100.873 19.2717C101.049 19.8902 101.329 20.4488 101.705 20.9321C102.087 21.4237 102.572 21.8195 103.148 22.108C103.725 22.3983 104.413 22.5459 105.192 22.5459C106.168 22.5459 106.978 22.3413 107.601 21.9381C108.205 21.5457 108.684 21.0579 109.022 20.4873C109.351 19.9305 109.571 19.3356 109.677 18.7188C109.777 18.134 109.828 17.6064 109.828 17.1512C109.828 16.5595 109.766 15.9631 109.645 15.3786C109.517 14.7644 109.283 14.2005 108.949 13.7026C108.606 13.1915 108.139 12.7713 107.56 12.4534C106.976 12.1335 106.238 11.9713 105.365 11.9713Z" fill="white"/>
<path fill-rule="evenodd" clip-rule="evenodd" d="M105.116 23.0919C104.215 23.0919 103.399 22.9583 102.69 22.6947C101.994 22.436 101.399 22.0641 100.919 21.5894C100.436 21.1127 100.057 20.5261 99.7914 19.8452C99.5216 19.1534 99.3848 18.3556 99.3848 17.4732C99.3848 16.5783 99.5315 15.7469 99.8204 15.002C100.107 14.2647 100.513 13.6249 101.03 13.1001C101.544 12.5781 102.183 12.1647 102.931 11.8716C103.687 11.5751 104.551 11.4248 105.499 11.4248C106.385 11.4248 107.184 11.5577 107.872 11.8201C108.549 12.0782 109.129 12.4469 109.597 12.9154C110.064 13.3823 110.426 13.9653 110.674 14.6481C110.928 15.3506 111.057 16.1564 111.057 17.0433C111.057 17.7949 110.936 18.5505 110.696 19.2889C110.462 20.0083 110.098 20.6559 109.614 21.214C109.133 21.7684 108.513 22.225 107.77 22.5718C107.031 22.9169 106.138 23.0919 105.116 23.0919ZM105.365 11.8086C104.728 11.8086 104.11 11.9153 103.528 12.1255C102.926 12.3437 102.386 12.6912 101.923 13.1585C101.463 13.6228 101.097 14.2158 100.836 14.9211C100.58 15.6107 100.45 16.4393 100.45 17.3835C100.45 18.0508 100.539 18.7008 100.715 19.3156C100.897 19.9539 101.186 20.531 101.575 21.0309C101.972 21.542 102.476 21.953 103.073 22.2528C103.674 22.5546 104.387 22.708 105.192 22.708C106.2 22.708 107.041 22.4943 107.69 22.0736C108.317 21.6676 108.812 21.1613 109.163 20.5691C109.503 19.9953 109.73 19.3818 109.839 18.7456C109.94 18.1517 109.992 17.615 109.992 17.1509C109.992 16.548 109.929 15.9407 109.806 15.3456C109.674 14.7108 109.432 14.1277 109.086 13.6122C108.729 13.0794 108.242 12.6415 107.64 12.3111C107.031 11.9775 106.266 11.8086 105.365 11.8086Z" fill="white"/>
<path fill-rule="evenodd" clip-rule="evenodd" d="M116.396 21.4893H117.779L117.856 12.1325H114.724L114.647 13.9132H112.727L112.803 10.7012H125.002L125.079 13.9132H123.158L123.081 12.1325H120.007L119.931 21.4893H121.487V22.9208H116.396V21.4893Z" fill="white"/>
<path fill-rule="evenodd" clip-rule="evenodd" d="M116.495 21.7764H117.915L117.997 11.8455H114.445L114.366 13.6735H112.727L112.798 10.7012H125.008L125.079 13.6735H123.439L123.36 11.8455H119.871L119.789 21.7764H121.39V22.9208H116.495V21.7764Z" fill="white"/>
<path fill-rule="evenodd" clip-rule="evenodd" d="M116.301 22.9213V22.1443H117.649L117.729 12.4184H114.041L113.966 14.152H112.727L112.787 11.6416H124.069L124.129 14.152H122.89L122.815 12.4184H119.188L119.108 22.1443H120.629V22.9213H116.301Z" fill="white"/>
<path fill-rule="evenodd" clip-rule="evenodd" d="M117.875 12.1234H113.752L113.675 13.9057H112.727L112.781 11.6416H124.075L124.129 13.9057H123.18L123.103 12.1234H119.046L118.961 22.4395H120.529V22.9213H116.403V22.4395H117.79L117.875 12.1234Z" fill="white"/>
<path fill-rule="evenodd" clip-rule="evenodd" d="M117.145 22.9213V22.7517H118.454L118.537 11.811H114.335L114.262 13.6449H113.676L113.72 11.6416H124.084L124.128 13.6449H123.541L123.468 11.811H119.331L119.249 22.7517H120.731V22.9213H117.145Z" fill="white"/>
<path fill-rule="evenodd" clip-rule="evenodd" d="M126.161 21.4893H127.478L127.553 12.1325H126.029V10.7012H135.287L135.362 13.9132H133.612L133.499 12.1325H129.661L129.623 15.9032H133.386V17.4394H129.623L129.585 21.4893H133.612L133.763 19.4995H135.531L135.381 22.9208H126.161V21.4893Z" fill="white"/>
<path fill-rule="evenodd" clip-rule="evenodd" d="M127.115 21.7764H128.478L128.559 11.8455H126.979V10.7012H136.238L136.309 13.6735H134.823L134.705 11.8455H130.408L130.366 16.0417H134.266V17.2936H130.369L130.327 21.7764H134.821L134.977 19.7336H136.48L136.339 22.9208H127.115V21.7764Z" fill="white"/>
<path fill-rule="evenodd" clip-rule="evenodd" d="M127.12 22.9213V22.1443H128.532L128.619 12.4184H126.979V11.6416H136.241L136.306 14.152H135.104L134.983 12.4184H130.192L130.144 16.706H134.191V17.5849H130.151L130.104 22.1443H135.101L135.262 20.2071H136.48L136.349 22.9213H127.12Z" fill="white"/>
<path fill-rule="evenodd" clip-rule="evenodd" d="M128.684 12.1234H126.979V11.6416H136.244L136.303 13.9057H135.408L135.281 12.1234H129.959L129.906 16.8484H134.111V17.435H129.916L129.864 22.4395H135.402L135.57 20.4477H136.48L136.359 22.9213H127.125V22.4395H128.591L128.684 12.1234Z" fill="white"/>
<path fill-rule="evenodd" clip-rule="evenodd" d="M127.116 22.9213V22.7517H128.487L128.576 11.811H126.979V11.6416H135.32L135.367 13.6449H134.859L134.741 11.811H129.434L129.381 16.9989H133.319V17.2763H129.394L129.342 22.7517H134.852L135.009 20.7024H135.53L135.431 22.9213H127.116Z" fill="white"/>
<path fill-rule="evenodd" clip-rule="evenodd" d="M136.48 10.7012V12.4008L137.582 13.5211L138.381 12.4008L138.378 10.7012H136.48Z" fill="white"/>
<path fill-rule="evenodd" clip-rule="evenodd" d="M136.48 12.4235V10.7012H138.378L138.381 12.4422L137.59 13.5211L136.48 12.4235Z" fill="white"/>
<path fill-rule="evenodd" clip-rule="evenodd" d="M136.48 12.812V11.6416H137.429L137.431 12.8429L137.042 13.5215L136.48 12.812Z" fill="white"/>
<path fill-rule="evenodd" clip-rule="evenodd" d="M136.48 12.8474V11.6416H137.429L137.431 12.9077L137.053 13.5215L136.48 12.8474Z" fill="white"/>
<path fill-rule="evenodd" clip-rule="evenodd" d="M136.48 12.2773V11.6416H137.429L137.431 12.3346L137.079 12.5816L136.48 12.2773Z" fill="white"/>
<mask id="mask0" mask-type="alpha" maskUnits="userSpaceOnUse" x="0" y="0" width="30" height="35">
<path fill-rule="evenodd" clip-rule="evenodd" d="M0.603516 0.435547H29.0312V34.2008H0.603516V0.435547Z" fill="white"/>
</mask>
<g mask="url(#mask0)">
<path fill-rule="evenodd" clip-rule="evenodd" d="M24.2359 16.9492C24.02 17.1497 23.0787 16.3611 22.3338 16.3611C21.5888 16.3611 20.9448 16.9628 20.7559 16.7356C20.5669 16.5083 20.9301 14.6772 22.3338 14.6772C23.7376 14.6772 24.4518 16.7487 24.2359 16.9492ZM28.4614 6.55163C28.4614 4.38769 25.2221 4.14601 25.2221 4.14601L17.6098 3.66489C17.6098 3.66489 17.4478 1.58001 15.9092 0.858328C14.3705 0.136642 11.1735 0.554739 9.95875 0.567569C8.74401 0.580399 8.45879 2.14133 8.45879 3.61132C8.45879 5.08148 8.48584 5.75008 8.48584 6.81881C8.48584 7.88755 7.93063 8.39385 7.06185 8.39594H2.74954C1.54291 8.31623 0.603516 8.51622 0.603516 9.49852C0.603516 10.4808 2.02216 20.8343 3.97238 22.7655C5.10402 23.886 12.022 24.674 13.4797 24.674C14.9374 24.674 14.4515 20.3439 14.8564 20.3439C15.2613 20.3439 15.7067 22.7896 18.0013 23.3642C20.2958 23.9388 23.3595 23.832 23.5215 25.4758C23.7351 27.6438 23.9264 30.4475 22.5092 30.6479L19.3013 30.7764C17.102 30.6179 17.6911 28.2006 18.6629 28.2006C19.6347 28.2006 20.1202 28.1621 20.1202 28.1621L20.2417 25.5159C20.2417 25.5159 15.2053 24.9155 14.9913 28.3358C14.7958 31.4613 15.3288 32.9333 15.7201 33.254C16.1116 33.5746 16.7865 34.2009 22.9546 34.2009C31.6466 34.2009 28.4614 8.71541 28.4614 6.55163Z" fill="white"/>
</g>
<path fill-rule="evenodd" clip-rule="evenodd" d="M7.56825 6.79203C7.56825 6.36431 7.67628 1.74023 7.67628 1.74023L1.68359 7.64731H6.54253C7.43333 7.64731 7.56825 7.21975 7.56825 6.79203Z" fill="white"/>
</svg>
