<svg width="129" height="39" viewBox="0 0 129 39" fill="none" xmlns="http://www.w3.org/2000/svg">
<mask id="mask0" mask-type="alpha" maskUnits="userSpaceOnUse" x="0" y="0" width="27" height="39">
<path fill-rule="evenodd" clip-rule="evenodd" d="M0.15625 0.0126953H26.497V38.3479H0.15625V0.0126953Z" fill="white"/>
</mask>
<g mask="url(#mask0)">
<path fill-rule="evenodd" clip-rule="evenodd" d="M22.2334 9.22462L24.9359 4.41911C25.7273 3.01452 25.2572 1.21797 23.8884 0.406423C22.52 -0.404231 20.7681 0.0768999 19.978 1.48239L17.2747 6.28656C11.515 4.42313 5.06701 6.83369 1.92236 12.4231C-0.0734832 15.9698 -0.323072 20.0601 0.897914 23.6447L5.88883 14.7739V14.773C7.03589 12.7352 8.88781 11.2771 11.1032 10.6671C13.3195 10.058 15.6337 10.371 17.6208 11.5478C21.7217 13.978 23.1314 19.3783 20.7642 23.5863C18.3957 27.7948 13.1334 29.2422 9.03261 26.812L11.8951 21.7238C13.2643 22.5358 15.0149 22.0537 15.8054 20.6491C16.5955 19.2441 16.1268 17.448 14.7575 16.6364C13.3887 15.8249 11.6376 16.3065 10.8467 17.7111L1.71625 33.9415C0.926178 35.3466 1.39492 37.1422 2.76418 37.9538C4.13344 38.7653 5.88448 38.2838 6.67412 36.8783L9.37829 32.0741C15.1375 33.9375 21.5856 31.5265 24.7306 25.9362C27.8757 20.3473 26.686 13.4112 22.2334 9.22462Z" fill="#FEFEFE"/>
</g>
<path fill-rule="evenodd" clip-rule="evenodd" d="M38.7621 19.2763C40.0022 19.2763 40.7921 18.6581 40.7921 17.1602C40.7921 15.6431 39.9659 15.0656 38.7621 15.0656H37.0542V19.2763H38.7621ZM34.5391 12.6084H38.8337C41.3316 12.6084 43.3805 13.9861 43.3805 17.1602C43.3805 20.3348 41.3139 21.7331 38.8337 21.7331H37.0542V26.1862H34.5391V12.6084Z" fill="#FEFEFE"/>
<path fill-rule="evenodd" clip-rule="evenodd" d="M48.293 12.6084H56.8667V15.0653H50.9597V18.1787H56.1619V20.5742H50.9597V23.7298H57.1344V26.1862H48.293V12.6084Z" fill="#FEFEFE"/>
<path fill-rule="evenodd" clip-rule="evenodd" d="M61.0645 12.6084H63.52V23.7298H68.9235V26.1862H61.0645V12.6084Z" fill="#FEFEFE"/>
<path fill-rule="evenodd" clip-rule="evenodd" d="M82.8101 19.3968C82.8101 16.9272 81.1686 15.0402 78.7467 15.0402C76.323 15.0402 74.6824 16.9272 74.6824 19.3968C74.6824 21.8674 76.323 23.7548 78.7467 23.7548C81.1686 23.7548 82.8101 21.8674 82.8101 19.3968ZM71.8691 19.3968C71.8691 15.4884 74.917 12.6084 78.7467 12.6084C82.5755 12.6084 85.6225 15.4884 85.6225 19.3968C85.6225 23.3067 82.5755 26.1862 78.7467 26.1862C74.917 26.1862 71.8691 23.3067 71.8691 19.3968Z" fill="#FEFEFE"/>
<path fill-rule="evenodd" clip-rule="evenodd" d="M91.1974 15.0653H87.5879V12.6084H97.4117V15.0653H93.8027V26.1862H91.1974V15.0653Z" fill="#FEFEFE"/>
<path fill-rule="evenodd" clip-rule="evenodd" d="M111.3 19.3968C111.3 16.9272 109.659 15.0402 107.237 15.0402C104.814 15.0402 103.173 16.9272 103.173 19.3968C103.173 21.8674 104.814 23.7548 107.237 23.7548C109.659 23.7548 111.3 21.8674 111.3 19.3968ZM100.359 19.3968C100.359 15.4884 103.407 12.6084 107.237 12.6084C111.066 12.6084 114.113 15.4884 114.113 19.3968C114.113 23.3067 111.066 26.1862 107.237 26.1862C103.407 26.1862 100.359 23.3067 100.359 19.3968Z" fill="#FEFEFE"/>
<mask id="mask1" mask-type="alpha" maskUnits="userSpaceOnUse" x="118" y="12" width="11" height="15">
<path fill-rule="evenodd" clip-rule="evenodd" d="M118.465 12.7217H128.765V26.0845H118.465V12.7217Z" fill="white"/>
</mask>
<g mask="url(#mask1)">
<path fill-rule="evenodd" clip-rule="evenodd" d="M122.187 19.8663C121.561 19.2485 120.694 18.0704 120.694 18.0704C120.694 18.0704 120.879 19.5187 120.879 20.4646V25.9695H118.465V12.7217H118.722L125.043 18.9412C125.651 19.5386 126.517 20.7348 126.517 20.7348C126.517 20.7348 126.352 19.2485 126.352 18.342V12.838H128.765V26.0845H128.509L122.187 19.8663Z" fill="#FEFEFE"/>
</g>
</svg>
