<svg width="138" height="25" viewBox="0 0 138 25" fill="none" xmlns="http://www.w3.org/2000/svg">
<path fill-rule="evenodd" clip-rule="evenodd" d="M137.859 20.9851C137.452 22.3616 136.068 23.5753 134.684 23.8182C133.22 24.0611 131.591 24.1421 130.289 23.5753C129.72 23.5753 129.394 24.1421 128.905 24.0611L128.498 23.4943L127.766 20.5803C127.766 20.3374 128.011 20.0945 128.173 20.0135C129.231 20.0945 129.394 21.228 130.208 21.7138C131.266 22.5235 132.975 22.7656 134.196 22.1997C134.929 21.7948 135.336 21.1471 135.336 20.4184C134.847 17.5853 131.591 16.6145 129.72 14.9142C128.58 14.1053 127.928 12.9717 127.928 11.6763C128.011 10.4625 128.498 9.24804 129.638 8.60031C131.185 7.71045 133.301 7.95335 134.929 8.35819C135.498 8.43915 135.743 7.79142 136.312 8.03432C136.72 8.27722 136.963 10.2196 137.208 11.3524C137.208 11.5953 136.882 11.7572 136.72 11.7572C136.149 11.6763 135.661 10.5435 134.929 10.0577C134.196 9.65288 133.544 9.24804 132.65 9.32901C131.999 9.40998 131.428 9.65288 131.104 10.2196C130.859 10.6245 130.859 11.1095 130.941 11.5953C132.243 13.7005 134.766 14.5911 136.557 16.3716C137.777 17.5043 138.184 19.2848 137.859 20.9851Z" fill="#FEFEFE"/>
<path fill-rule="evenodd" clip-rule="evenodd" d="M124.104 19.5285C123.779 20.4192 123.291 21.39 122.476 22.0377C121.418 22.8474 119.628 22.8474 118.407 22.2799C117.756 21.309 118.082 19.9334 117.999 18.7998V11.0293C117.999 10.6245 118.162 10.1387 118.57 9.97675C119.709 9.32902 121.255 9.57192 122.314 10.2197C124.918 12.486 124.837 16.4526 124.104 19.5285ZM126.871 11.5961C125 8.03429 120.767 7.87236 117.105 8.35816C115.883 8.60028 114.582 8.68125 113.523 9.40996C112.872 10.5435 114.662 10.0577 114.744 10.9483L114.825 21.471C114.744 21.7948 114.337 22.0377 113.93 22.0377C113.605 22.1997 113.523 22.4418 113.523 22.7657C113.849 23.2515 114.744 23.4944 114.825 23.4944C118.162 24.2231 122.394 24.7081 125.244 22.6855C128.418 20.0953 128.581 14.9951 126.871 11.5961Z" fill="#FEFEFE"/>
<path fill-rule="evenodd" clip-rule="evenodd" d="M69.4912 23.818L69.0027 24.1419H58.5848C58.2592 24.1419 58.0964 23.6561 58.2592 23.3322C58.5848 22.7655 59.6424 23.1711 59.7239 22.3614V10.6243C59.6424 9.65351 57.9335 10.3005 58.422 9.08674L58.8291 8.9248H68.6771C69.3284 9.08674 69.4098 10.3814 69.8169 11.1101C69.8169 11.353 69.654 11.515 69.4912 11.5959C68.7585 11.5959 68.4328 10.5434 67.7823 10.3005C66.6425 10.2195 64.8522 10.2195 63.4681 10.3005C62.654 10.8672 63.0611 12.081 62.9804 12.9716C63.0611 13.5384 62.7362 14.3472 63.4681 14.5909L66.4797 14.6711C66.7239 14.6711 66.8867 14.995 66.9681 15.1569C67.0496 15.6435 66.8867 15.9666 66.4797 16.1285L63.4681 16.2905C62.8176 16.6953 62.9804 17.505 62.899 18.1519C62.899 19.4474 62.899 20.985 63.1425 22.2797C63.8752 23.1711 67.538 22.6853 67.8637 22.6035C68.9213 22.5233 69.0841 20.823 70.2239 21.1469C70.4682 21.3898 70.3867 21.7946 70.3053 22.0375L69.4912 23.818Z" fill="#FEFEFE"/>
<path fill-rule="evenodd" clip-rule="evenodd" d="M57.0383 24.1422H49.3063C48.9807 24.0612 48.5736 23.9803 48.4922 23.6564C48.3293 23.1714 48.8178 22.9277 49.1435 22.8475C49.4691 22.8475 49.7134 22.6038 49.7948 22.3617V10.3817C49.632 9.57281 48.0037 10.0578 48.5736 8.92507C48.8178 8.60121 50.6904 8.76314 52.155 8.76314C52.9692 8.76314 54.5967 8.60121 54.5967 9.08701C54.5967 9.4101 54.4338 9.73397 54.1896 9.81493C53.7011 9.81493 53.2126 9.97687 53.0506 10.4627C53.132 14.4285 53.132 18.2332 53.132 22.1188C53.2948 22.6856 54.0268 22.5236 54.5153 22.6038C55.9799 22.8475 57.0383 21.9569 57.7711 20.9051C58.0153 20.7432 58.2595 20.6614 58.4224 20.7432C58.9108 21.0662 58.5852 21.552 58.5038 21.8759C58.0967 22.6038 58.0153 23.8183 57.0383 24.1422Z" fill="#FEFEFE"/>
<mask id="mask0" mask-type="alpha" maskUnits="userSpaceOnUse" x="32" y="0" width="18" height="25">
<path fill-rule="evenodd" clip-rule="evenodd" d="M32.5586 0.0556641H49.2181V24.0764H32.5586V0.0556641Z" fill="white"/>
</mask>
<g mask="url(#mask0)">
<path fill-rule="evenodd" clip-rule="evenodd" d="M44.9914 23.4138C42.3056 24.3854 38.6427 24.4663 36.3639 22.4422C33.5966 19.9329 33.1896 15.6432 34.41 12.3244C35.2241 9.81517 37.9914 8.60066 40.0268 7.4679C40.1082 7.30597 39.8639 7.225 39.7825 7.225C38.0728 7.4679 36.8524 5.60565 35.2241 6.82016C34.817 7.06306 34.4914 7.62983 33.9223 7.38693C33.5966 7.06306 33.7594 6.57726 33.9223 6.25339C34.4914 5.20082 35.5498 4.39193 36.6896 4.14902C38.6427 3.74419 40.1082 4.87695 41.7357 5.52469C41.9799 5.52469 42.4676 5.60566 42.6304 5.36275C42.1427 4.79676 41.41 4.63483 40.8401 4.14902C39.4569 2.93452 37.5843 2.04466 35.794 2.77258C34.8985 3.25839 34.0037 3.98709 33.5966 4.95792C33.3524 5.12063 33.0267 5.20082 32.7825 5.12063C32.4568 4.71579 32.5382 4.06806 32.7011 3.66322C33.271 2.36853 34.1657 0.668215 35.7126 0.344347C38.4799 -0.707448 40.6773 1.31595 42.549 3.17742C43.2818 4.22999 44.91 3.42032 45.4799 4.55386C45.7242 5.12063 45.3985 5.68662 44.9914 6.09146C42.3056 8.35854 37.91 9.41033 37.3409 13.4579C36.9338 16.6149 37.0152 20.4188 39.9453 22.2802C41.0844 22.766 42.549 22.766 43.6888 21.9571C46.2933 19.771 45.9684 15.8861 45.3985 12.8102C45.0729 11.4337 44.0145 10.139 42.7119 9.32937C42.549 9.0055 42.7941 8.60066 43.1189 8.43951C45.2357 8.27757 47.1888 9.7342 48.1658 11.5957C49.6305 14.3478 49.6305 18.5573 47.7587 21.1475C47.1074 22.1191 46.0498 23.0089 44.9914 23.4138Z" fill="#FEFEFE"/>
</g>
<mask id="mask1" mask-type="alpha" maskUnits="userSpaceOnUse" x="0" y="8" width="35" height="17">
<path fill-rule="evenodd" clip-rule="evenodd" d="M0.603516 8.50684H34.3294V24.1418H0.603516V8.50684Z" fill="white"/>
</mask>
<g mask="url(#mask1)">
<path fill-rule="evenodd" clip-rule="evenodd" d="M1.12193 8.51979H6.33087C6.57511 8.60076 6.65653 8.92463 6.57511 9.16753C6.08663 9.4914 5.4361 9.32946 5.19107 9.97642L5.3539 10.8671C6.4937 13.7001 7.30784 16.6951 8.60968 19.3663C8.6911 19.5282 8.85392 19.5282 8.93534 19.3663C9.66807 17.7477 10.238 15.9664 10.8893 14.1859C10.7264 12.7285 10.0751 11.4338 9.58665 10.1384C9.34241 9.32946 7.95837 9.73352 8.28403 8.76269L8.60968 8.51979H13.5744C13.7372 8.60076 13.9008 8.76269 13.9008 9.00559C13.8194 9.73352 12.9239 9.32946 12.6796 10.0574L12.761 10.8671C13.8194 13.7001 14.4699 16.6142 15.6911 19.2853C16.0982 19.2853 16.0982 18.7995 16.2603 18.5566L18.6213 10.7051C18.7841 10.4622 18.6213 10.1384 18.377 9.89545C17.97 9.57236 16.9116 9.65333 17.2372 8.84366L17.5629 8.68173H25.1321C25.4577 8.68173 25.8648 8.76269 25.8648 9.08656C25.8648 9.97642 24.6436 9.4914 24.4815 10.3003C24.4815 11.5148 24.4815 12.8905 24.5629 14.105L25.0506 14.4281C26.3533 14.3471 27.9001 14.4281 29.202 14.4281C29.7719 14.4281 29.5276 11.7577 29.6091 10.3813C29.4462 9.32946 27.8187 10.1384 28.225 8.84366L28.5507 8.60076H34.0039C34.3295 8.76269 34.4109 9.16753 34.2481 9.4914C33.841 9.81449 33.1083 9.65333 32.9463 10.3003V22.5232C33.1897 23.2511 34.6552 22.7653 34.2481 23.8989L33.841 24.1418L28.7135 24.0608C28.5507 24.0608 28.3072 23.9798 28.225 23.7369C28.1436 22.6852 29.5276 23.2511 29.6091 22.3613V16.4522L29.202 16.0474H24.8064L24.5629 16.5324V22.5232C24.725 23.3321 26.3533 22.7653 25.7834 23.8989L25.3763 24.1418H20.1674C19.8417 23.9798 19.7603 23.575 19.8417 23.3321C20.1674 22.8471 20.9001 23.0892 21.1443 22.6034L21.2257 21.3897V10.5432C21.2257 10.3813 21.1443 10.2193 20.9815 10.1384C20.493 10.2193 20.493 10.7861 20.3302 11.11C19.0283 15.1568 17.7257 19.2853 16.4231 23.4131C16.2603 23.7369 16.0168 23.9798 15.6911 24.1418C15.2841 24.1418 14.7956 24.1418 14.3885 23.575C13.3309 21.5516 13.0867 19.4472 12.1097 17.4238C12.1097 17.4238 11.8655 17.019 11.7026 17.2619C10.8079 19.2853 10.238 21.4706 9.42382 23.494C9.09817 24.0608 8.44685 24.1418 7.95837 24.0608C7.0636 23.9798 6.73794 22.4415 6.33087 21.3897L5.59814 19.4472L2.18031 10.0574C1.93607 9.16753 0.144958 9.65333 0.714857 8.68173C0.877685 8.43882 0.959099 8.51979 1.12193 8.51979Z" fill="#FEFEFE"/>
</g>
<mask id="mask2" mask-type="alpha" maskUnits="userSpaceOnUse" x="75" y="8" width="39" height="17">
<path fill-rule="evenodd" clip-rule="evenodd" d="M75.0254 8.2168H113.896V24.1415H75.0254V8.2168Z" fill="white"/>
</mask>
<g mask="url(#mask2)">
<path fill-rule="evenodd" clip-rule="evenodd" d="M110.35 18.2325C110.105 19.7709 109.453 21.3085 107.989 22.1991C107.013 22.7651 105.466 22.6849 104.489 22.1182C101.641 20.013 101.885 15.9662 102.617 12.8093C102.943 11.7575 103.757 10.462 104.896 9.97621C106.036 9.49041 107.42 9.81428 108.396 10.462C110.594 12.3243 110.675 15.3995 110.35 18.2325ZM95.4549 19.7709C95.1292 20.6607 94.5593 21.7133 93.5823 22.1991C92.5247 22.8468 90.8158 22.6849 89.8389 22.0372C87.0716 19.6899 87.2344 15.3185 88.292 12.1615C88.6999 11.1907 89.5946 10.2191 90.653 9.81426C91.9548 9.49039 93.3389 9.81426 94.2337 10.7859C96.269 13.0522 96.269 16.8568 95.4549 19.7709ZM112.71 11.6765C111.163 8.9236 108.07 7.95277 105.059 8.27664C102.454 8.43857 100.012 10.6239 99.1169 12.9712H98.9541C98.2222 11.4336 97.0009 9.81424 95.3734 9.00456C92.5247 7.70987 88.537 7.95277 86.176 10.3H85.8503C85.4441 9.73327 85.4441 8.84263 84.7113 8.59973C81.537 8.68069 78.6068 8.59973 75.4325 8.59973C75.0254 8.59973 75.0254 9.00456 75.0254 9.24747C75.1882 9.6523 75.5139 9.6523 75.8395 9.6523C76.1652 9.81424 76.4094 10.1381 76.4094 10.462V22.6849C76.2466 22.927 76.0024 23.089 75.6767 23.089C75.4325 23.1707 75.0254 23.4128 75.1882 23.7367C75.2696 23.9796 75.4325 24.0606 75.5953 24.1415H80.7228C81.0485 24.0606 81.4555 23.8986 81.3741 23.4128C81.1299 23.0088 80.6414 23.089 80.3165 22.927C79.828 22.7651 79.7458 22.2793 79.7458 21.8752V16.2901L79.9909 15.9662C81.1299 15.8852 83.083 16.2091 83.4901 15.4804C83.6529 15.2375 83.6529 14.7517 83.3273 14.5096C82.3503 14.1047 80.9671 14.3468 79.828 14.2659L79.583 14.0238V10.7049C79.583 10.381 79.828 10.1381 80.0715 9.97617C81.2927 9.81424 82.7582 9.8952 83.8972 10.1381C84.5485 10.381 84.9556 11.1097 85.199 11.6765C84.7113 12.5663 84.4671 13.5379 84.3043 14.5096C83.8158 18.0706 84.9556 21.5514 88.1292 23.3319C90.8158 24.5456 94.7221 24.4654 96.9203 22.4412C97.9779 21.5514 98.385 20.3369 99.1169 19.366C99.6868 20.2567 100.094 21.2275 100.907 22.0372C103.025 24.3035 106.687 24.4654 109.536 23.5748C110.594 23.089 111.652 22.4412 112.384 21.3894C114.256 18.7993 114.419 14.4278 112.71 11.6765Z" fill="#FEFEFE"/>
</g>
</svg>
